HIERARCHY
ROOT Hips
{
	OFFSET 0.000000 83.214638 0.000000
	CHANNELS 6 Xposition Yposition Zposition Xrotation Yrotation Zrotation
	JOINT Pelvis
	{
		OFFSET 0.000000 0.000000 0.000000
		CHANNELS 3 Xrotation Yrotation Zrotation
		JOINT LeftUpLeg
		{
			OFFSET 8.479700 -4.795502 -0.379100
			CHANNELS 3 Xrotation Yrotation Zrotation
			JOINT LeftLeg
			{
				OFFSET 0.024144 -32.555107 0.112900
				CHANNELS 3 Xrotation Yrotation Zrotation
				JOINT LeftFoot
				{
					OFFSET -0.024144 -32.638630 -3.012600
					CHANNELS 3 Xrotation Yrotation Zrotation
					JOINT LeftToeBase
					{
						OFFSET 0.970200 -13.225400 11.864200
						CHANNELS 3 Xrotation Yrotation Zrotation
						End Site
						{
							OFFSET 0.000000 12.319262 0.000000
						}
					}
					JOINT LFootTongue
					{
						OFFSET 1.142400 -1.059800 6.665200
						CHANNELS 3 Xrotation Yrotation Zrotation
						End Site
						{
							OFFSET 0.000000 12.319262 0.000000
						}
					}
				}
				JOINT LeftPantLeg
				{
					OFFSET 0.918482 -16.533964 -2.284700
					CHANNELS 3 Xrotation Yrotation Zrotation
					End Site
					{
						OFFSET 0.350399 24.744368 0.000000
					}
				}
			}
		}
		JOINT RightUpLeg
		{
			OFFSET -8.479700 -4.795502 -0.379100
			CHANNELS 3 Xrotation Yrotation Zrotation
			JOINT RightLeg
			{
				OFFSET -0.023144 -32.555092 0.112900
				CHANNELS 3 Xrotation Yrotation Zrotation
				JOINT RightFoot
				{
					OFFSET 0.023144 -32.638641 -3.012700
					CHANNELS 3 Xrotation Yrotation Zrotation
					JOINT RightToeBase
					{
						OFFSET -0.970200 -13.225400 11.864200
						CHANNELS 3 Xrotation Yrotation Zrotation
						End Site
						{
							OFFSET 0.000000 12.319244 0.000000
						}
					}
					JOINT RFootTongue
					{
						OFFSET -1.142200 -1.059800 6.665200
						CHANNELS 3 Xrotation Yrotation Zrotation
						End Site
						{
							OFFSET 0.000000 12.319243 0.000000
						}
					}
				}
				JOINT RightPantLeg
				{
					OFFSET -0.919482 -16.533978 -2.284800
					CHANNELS 3 Xrotation Yrotation Zrotation
					End Site
					{
						OFFSET -0.350400 24.744419 0.000000
					}
				}
			}
		}
	}
	JOINT Spine
	{
		OFFSET 0.000000 7.722000 1.166200
		CHANNELS 3 Xrotation Yrotation Zrotation
		JOINT Spine1
		{
			OFFSET 0.000000 12.024101 0.248800
			CHANNELS 3 Xrotation Yrotation Zrotation
			JOINT Spine2
			{
				OFFSET 0.000000 11.502998 -0.491200
				CHANNELS 3 Xrotation Yrotation Zrotation
				JOINT Neck
				{
					OFFSET 0.000000 18.430702 -3.123100
					CHANNELS 3 Xrotation Yrotation Zrotation
					JOINT Head
					{
						OFFSET 0.000000 9.051102 1.034000
						CHANNELS 3 Xrotation Yrotation Zrotation
						JOINT HairB
						{
							OFFSET 0.208400 24.786102 24.822300
							CHANNELS 3 Xrotation Yrotation Zrotation
							End Site
							{
								OFFSET 0.000000 32.263779 0.000000
							}
						}
						JOINT HairA
						{
							OFFSET -7.081100 24.428299 23.196600
							CHANNELS 3 Xrotation Yrotation Zrotation
							End Site
							{
								OFFSET 0.000000 32.263779 0.000000
							}
						}
						JOINT Hat
						{
							OFFSET 16.728800 15.048294 -15.439601
							CHANNELS 3 Xrotation Yrotation Zrotation
							End Site
							{
								OFFSET 0.000000 32.263779 0.000000
							}
						}
					}
				}
				JOINT LeftShoulder
				{
					OFFSET 6.197800 13.665199 -4.064700
					CHANNELS 3 Xrotation Yrotation Zrotation
					JOINT LeftArm
					{
						OFFSET 7.778100 -0.187103 -1.709300
						CHANNELS 3 Xrotation Yrotation Zrotation
						JOINT LeftForeArm
						{
							OFFSET 22.049376 0.000000 0.000000
							CHANNELS 3 Xrotation Yrotation Zrotation
							JOINT LeftHand
							{
								OFFSET 23.009392 0.000000 0.000000
								CHANNELS 3 Xrotation Yrotation Zrotation
								JOINT LeftHandThumb1
								{
									OFFSET 3.507191 -2.063065 3.133727
									CHANNELS 3 Xrotation Yrotation Zrotation
									JOINT LeftHandThumb2
									{
										OFFSET 3.101337 -1.790558 1.790558
										CHANNELS 3 Xrotation Yrotation Zrotation
										JOINT LeftHandThumb3
										{
											OFFSET 3.058640 -1.765907 1.765906
											CHANNELS 3 Xrotation Yrotation Zrotation
											End Site
											{
												OFFSET -0.415260 3.926476 -0.049563
											}
										}
									}
								}
								JOINT LeftHandIndex1
								{
									OFFSET 11.334419 -0.901459 3.706815
									CHANNELS 3 Xrotation Yrotation Zrotation
									JOINT LeftHandIndex2
									{
										OFFSET 3.283112 0.000000 0.000000
										CHANNELS 3 Xrotation Yrotation Zrotation
										JOINT LeftHandIndex3
										{
											OFFSET 3.323853 0.000000 0.000000
											CHANNELS 3 Xrotation Yrotation Zrotation
											End Site
											{
												OFFSET -1.135597 3.097809 0.402452
											}
										}
									}
								}
								JOINT LeftHandMiddle1
								{
									OFFSET 11.335861 0.000000 0.000000
									CHANNELS 3 Xrotation Yrotation Zrotation
									JOINT LeftHandMiddle2
									{
										OFFSET 3.410492 0.000000 0.000000
										CHANNELS 3 Xrotation Yrotation Zrotation
										JOINT LeftHandMiddle3
										{
											OFFSET 3.312172 0.000000 0.000000
											CHANNELS 3 Xrotation Yrotation Zrotation
											End Site
											{
												OFFSET -1.150200 3.080154 0.400270
											}
										}
									}
								}
								JOINT LeftHandRing1
								{
									OFFSET 11.514786 -0.013176 -3.003090
									CHANNELS 3 Xrotation Yrotation Zrotation
									JOINT LeftHandRing2
									{
										OFFSET 3.053307 0.000000 0.000000
										CHANNELS 3 Xrotation Yrotation Zrotation
										JOINT LeftHandRing3
										{
											OFFSET 3.295807 0.000000 0.000000
											CHANNELS 3 Xrotation Yrotation Zrotation
											End Site
											{
												OFFSET -1.281006 3.013344 0.375733
											}
										}
									}
								}
								JOINT LeftHandPinky1
								{
									OFFSET 10.518692 -0.960396 -5.730441
									CHANNELS 3 Xrotation Yrotation Zrotation
									JOINT LeftHandPinky2
									{
										OFFSET 2.861649 0.000000 0.000000
										CHANNELS 3 Xrotation Yrotation Zrotation
										JOINT LeftHandPinky3
										{
											OFFSET 2.863380 0.000000 0.000000
											CHANNELS 3 Xrotation Yrotation Zrotation
											End Site
											{
												OFFSET -0.843597 2.711159 0.369971
											}
										}
									}
								}
							}
							JOINT LSleeve
							{
								OFFSET 6.676277 -0.344902 -1.011730
								CHANNELS 3 Xrotation Yrotation Zrotation
								End Site
								{
									OFFSET 0.000000 14.885353 0.000000
								}
							}
						}
					}
				}
				JOINT RightShoulder
				{
					OFFSET -6.197800 13.665199 -4.064700
					CHANNELS 3 Xrotation Yrotation Zrotation
					JOINT RightArm
					{
						OFFSET -7.778100 -0.187103 -1.709300
						CHANNELS 3 Xrotation Yrotation Zrotation
						JOINT RightForeArm
						{
							OFFSET -22.049376 0.000000 0.000000
							CHANNELS 3 Xrotation Yrotation Zrotation
							JOINT RightHand
							{
								OFFSET -23.009392 0.000000 0.000000
								CHANNELS 3 Xrotation Yrotation Zrotation
								JOINT RightHandThumb1
								{
									OFFSET -3.507191 -2.063065 3.133727
									CHANNELS 3 Xrotation Yrotation Zrotation
									JOINT RightHandThumb2
									{
										OFFSET -3.101337 -1.790558 1.790558
										CHANNELS 3 Xrotation Yrotation Zrotation
										JOINT RightHandThumb3
										{
											OFFSET -3.058640 -1.765907 1.765906
											CHANNELS 3 Xrotation Yrotation Zrotation
											End Site
											{
												OFFSET 0.415260 3.926476 -0.049563
											}
										}
									}
								}
								JOINT RightHandIndex1
								{
									OFFSET -11.334419 -0.901459 3.706815
									CHANNELS 3 Xrotation Yrotation Zrotation
									JOINT RightHandIndex2
									{
										OFFSET -3.283112 0.000000 0.000000
										CHANNELS 3 Xrotation Yrotation Zrotation
										JOINT RightHandIndex3
										{
											OFFSET -3.323853 0.000000 0.000000
											CHANNELS 3 Xrotation Yrotation Zrotation
											End Site
											{
												OFFSET 1.135597 3.097809 0.402452
											}
										}
									}
								}
								JOINT RightHandMiddle1
								{
									OFFSET -11.335861 0.000000 0.000000
									CHANNELS 3 Xrotation Yrotation Zrotation
									JOINT RightHandMiddle2
									{
										OFFSET -3.410492 0.000000 0.000000
										CHANNELS 3 Xrotation Yrotation Zrotation
										JOINT RightHandMiddle3
										{
											OFFSET -3.312172 0.000000 0.000000
											CHANNELS 3 Xrotation Yrotation Zrotation
											End Site
											{
												OFFSET 1.150200 3.080154 0.400270
											}
										}
									}
								}
								JOINT RightHandRing1
								{
									OFFSET -11.514786 -0.013176 -3.003090
									CHANNELS 3 Xrotation Yrotation Zrotation
									JOINT RightHandRing2
									{
										OFFSET -3.053307 0.000000 0.000000
										CHANNELS 3 Xrotation Yrotation Zrotation
										JOINT RightHandRing3
										{
											OFFSET -3.295807 0.000000 0.000000
											CHANNELS 3 Xrotation Yrotation Zrotation
											End Site
											{
												OFFSET 1.281006 3.013344 0.375733
											}
										}
									}
								}
								JOINT RightHandPinky1
								{
									OFFSET -10.518692 -0.960396 -5.730441
									CHANNELS 3 Xrotation Yrotation Zrotation
									JOINT RightHandPinky2
									{
										OFFSET -2.861649 0.000000 0.000000
										CHANNELS 3 Xrotation Yrotation Zrotation
										JOINT RightHandPinky3
										{
											OFFSET -2.863380 0.000000 0.000000
											CHANNELS 3 Xrotation Yrotation Zrotation
											End Site
											{
												OFFSET 0.843597 2.711159 0.369971
											}
										}
									}
								}
							}
							JOINT RSleeve
							{
								OFFSET -6.676277 -0.344902 -1.011730
								CHANNELS 3 Xrotation Yrotation Zrotation
								End Site
								{
									OFFSET 0.000000 14.885353 0.000000
								}
							}
						}
					}
				}
				JOINT Backpack
				{
					OFFSET 0.000000 -2.471497 36.677502
					CHANNELS 3 Xrotation Yrotation Zrotation
					End Site
					{
						OFFSET 0.000000 20.427315 0.000000
					}
				}
				JOINT Hood
				{
					OFFSET 0.000000 18.754097 -10.431000
					CHANNELS 3 Xrotation Yrotation Zrotation
					JOINT Hood1
					{
						OFFSET 0.000000 -5.011002 -7.685901
						CHANNELS 3 Xrotation Yrotation Zrotation
						End Site
						{
							OFFSET 0.000000 9.175140 0.000000
						}
					}
				}
				JOINT LHoodieString
				{
					OFFSET 5.250500 16.397697 3.089900
					CHANNELS 3 Xrotation Yrotation Zrotation
					JOINT LHoodieString1
					{
						OFFSET 0.257700 -6.364304 3.694600
						CHANNELS 3 Xrotation Yrotation Zrotation
						JOINT LHoodieString2
						{
							OFFSET 0.000000 -9.643799 2.679100
							CHANNELS 3 Xrotation Yrotation Zrotation
							End Site
							{
								OFFSET 0.000000 10.009018 0.000000
							}
						}
					}
				}
				JOINT RHoodieString
				{
					OFFSET -5.250500 16.397697 3.089900
					CHANNELS 3 Xrotation Yrotation Zrotation
					JOINT RHoodieString1
					{
						OFFSET -0.257700 -6.364304 3.694600
						CHANNELS 3 Xrotation Yrotation Zrotation
						JOINT RHoodieString2
						{
							OFFSET 0.000000 -9.643799 2.679100
							CHANNELS 3 Xrotation Yrotation Zrotation
							End Site
							{
								OFFSET 0.000000 10.009018 0.000000
							}
						}
					}
				}
			}
			JOINT LBackpack_Strap
			{
				OFFSET 15.223200 -7.719803 -6.610900
				CHANNELS 3 Xrotation Yrotation Zrotation
				End Site
				{
					OFFSET 0.000000 16.040596 0.000000
				}
			}
			JOINT RBackpack_Strap
			{
				OFFSET -15.223000 -7.719803 -6.610900
				CHANNELS 3 Xrotation Yrotation Zrotation
				End Site
				{
					OFFSET 0.000000 16.040596 0.000000
				}
			}
		}
	}
	JOINT BoyFacialAnim_Joint
	{
		OFFSET 1.000000 -82.208099 -1.550900
		CHANNELS 3 Xrotation Yrotation Zrotation
		End Site
		{
			OFFSET 0.000000 30.012791 0.000000
		}
	}
}
MOTION
Frames: 5
Frame Time: 0.033333
4.813767 50.126343 140.452469 26.865970 3.439469 -2.580032 -0.000001 -0.000000 -0.000000 -57.410752 -13.947307 13.455027 112.125663 -0.390539 -0.372809 -50.779130 9.397327 -20.984730 -0.000002 -0.000000 0.000001 -0.000002 -0.000000 0.000001 0.000001 -0.000001 -0.000000 -103.776672 -3.069680 -34.909350 108.936880 10.317197 2.465892 -31.354977 2.267097 -1.890740 -0.000000 -0.000000 -0.000000 -0.000000 -0.000000 -0.000000 -0.000000 -0.000002 0.000001 16.938582 -0.520541 0.353149 31.627054 -0.162961 0.636884 31.626986 -0.185759 0.632281 -68.169120 -14.080870 -5.922752 8.624326 11.191069 6.807374 -0.000000 0.000000 0.000000 -0.000000 0.000000 0.000000 -0.000000 0.000000 0.000000 3.774197 -20.108796 32.835520 -67.510566 -18.835133 -27.146925 209.009608 -117.270373 205.766525 0.722792 -14.648036 36.298057 -51.332311 39.970288 -36.227504 -32.626594 12.743113 45.127466 -0.000001 0.000000 -0.000001 8.059242 -12.892839 -68.562395 -6.995041 -4.320081 -57.752753 -0.000003 -0.000001 -0.000004 -0.093923 17.782131 -74.779547 4.491050 5.327320 -80.251301 0.000003 -0.000001 -0.000002 0.086058 27.805183 -81.140673 3.932139 5.200997 -74.165397 -0.000002 -0.000000 -0.000002 -18.149124 11.704882 -69.598248 1.972265 4.177447 -50.530856 -0.000002 0.000003 -0.000003 -0.000001 0.000003 0.000004 5.062792 -1.732197 -22.342898 -44.962657 39.242644 24.183154 -176.903225 145.278083 180.654774 -12.170733 17.668914 -11.351098 -60.624909 -50.976263 23.150940 -19.982670 -5.036057 -14.620686 -0.000001 -0.000003 -0.000000 -1.432086 -7.610153 51.240871 6.418116 -13.850539 59.521998 -0.000000 -0.000000 0.000003 -0.918124 -17.386501 68.974939 2.541496 -4.586024 57.971046 -0.000000 0.000000 -0.000000 -4.168073 -26.187345 69.154292 2.358332 -4.466603 55.650305 -0.000000 0.000001 0.000000 -21.237090 -34.953681 51.047990 10.528115 -13.671238 64.971280 -0.000001 -0.000001 -0.000002 0.000000 -0.000000 -0.000000 0.000001 0.000000 0.000000 0.000001 0.000000 0.000000 0.000001 0.000000 0.000000 0.000001 0.000000 0.000000 0.000001 0.000000 0.000000 -0.000001 -0.000000 -0.000000 0.000001 0.000000 0.000000 0.000001 0.000000 0.000000 -0.000001 -0.000000 -0.000000 0.000001 0.000000 -0.000000 0.000001 0.000000 -0.000000 -0.000001 -0.000000 -0.000000 
4.422042 51.597107 141.530655 28.180650 4.040997 -3.563603 -0.000000 -0.000000 0.000000 -57.875519 -14.757068 14.087950 109.205094 -0.944806 -0.239460 -47.002585 8.519812 -20.995332 0.000001 -0.000001 0.000001 0.000001 -0.000001 0.000000 -0.000001 -0.000003 -0.000000 -100.672057 -4.079692 -33.609909 106.511397 8.688807 3.320601 -33.206887 1.939687 -0.196957 -0.000000 0.000000 -0.000000 -0.000000 0.000000 -0.000000 -0.000003 -0.000000 0.000000 16.413430 -0.469828 0.333403 31.225811 -0.208986 0.583752 31.225706 -0.236152 0.581870 -67.096582 -14.504171 -5.875615 5.212782 11.696736 6.607024 0.000000 0.000000 0.000000 0.000000 0.000000 0.000000 0.000000 0.000000 0.000000 3.724446 -19.190747 33.873046 -70.182987 -18.852893 -28.362222 211.870569 -118.922131 204.409216 -0.181845 -13.608797 33.570400 -51.641213 40.092169 -35.671561 -32.685556 12.684924 45.279855 0.000001 0.000002 -0.000001 8.058014 -12.892045 -68.562525 -6.995064 -4.320089 -57.752760 -0.000001 -0.000001 -0.000004 -0.094121 17.783280 -74.779431 4.491078 5.327326 -80.251301 0.000001 -0.000000 0.000000 0.085355 27.806035 -81.140530 3.932154 5.201002 -74.165391 -0.000003 -0.000001 -0.000000 -18.148542 11.706576 -69.597640 1.972264 4.177460 -50.530870 -0.000000 -0.000000 -0.000000 0.000002 -0.000004 0.000002 8.034265 2.262393 -19.641362 -32.547470 43.990831 9.082686 -187.777309 153.505346 184.656951 -12.762106 21.470423 -7.937060 -60.832718 -51.006712 22.783312 -20.102743 -5.005047 -14.843898 -0.000000 -0.000004 0.000001 -1.265648 -7.737428 53.463876 6.604598 -13.952447 61.765940 -0.000000 -0.000000 0.000002 -0.922122 -17.386270 68.936307 2.523487 -4.574729 57.745506 -0.000000 0.000001 0.000003 -4.168326 -26.188390 69.154088 2.349282 -4.460406 55.534007 -0.000000 0.000000 0.000004 -20.895897 -35.350266 51.910145 10.528103 -13.671236 64.971239 -0.000000 -0.000001 -0.000002 -0.000000 -0.000001 -0.000000 0.000003 -0.000000 -0.000000 0.000003 -0.000000 -0.000000 0.000003 -0.000000 -0.000000 0.000003 -0.000000 -0.000000 0.000003 -0.000000 -0.000000 0.000001 0.000000 -0.000000 0.000003 -0.000000 -0.000000 0.000003 -0.000000 -0.000000 0.000001 0.000000 -0.000000 -0.000001 0.000000 -0.000001 -0.000001 0.000000 -0.000001 -0.000000 -0.000000 0.000000 
3.984224 52.779594 142.532791 29.324809 4.742374 -4.059268 -0.000002 0.000000 0.000000 -58.286567 -15.088579 14.469373 106.616910 -1.608257 -0.067298 -43.658941 7.782936 -20.891349 0.000003 0.000000 0.000000 0.000003 0.000000 0.000000 0.000000 -0.000004 -0.000001 -98.140365 -4.354504 -32.082136 104.733936 6.678161 3.856967 -34.854165 1.484245 1.608971 0.000000 -0.000002 -0.000000 0.000000 -0.000002 -0.000000 -0.000001 -0.000001 -0.000001 16.042777 -0.530374 0.322062 30.562785 -0.292130 0.680921 30.562658 -0.324928 0.681750 -64.824697 -14.904320 -5.900776 2.364865 12.186400 6.451884 -0.000002 0.000000 0.000000 -0.000002 0.000000 0.000000 -0.000002 0.000000 0.000000 3.455571 -18.601978 33.116886 -75.190930 -18.822108 -31.879259 217.666613 -121.526960 204.148917 -1.979362 -11.892896 26.385292 -51.953434 40.212428 -35.113524 -32.744443 12.626611 45.432205 0.000001 0.000001 -0.000001 8.056784 -12.891220 -68.562614 -6.995051 -4.320098 -57.752753 0.000001 -0.000000 -0.000005 -0.094007 17.784745 -74.779370 4.491053 5.327339 -80.251308 -0.000001 -0.000001 -0.000002 0.084444 27.807042 -81.140400 3.932150 5.200989 -74.165377 -0.000003 -0.000002 -0.000001 -18.148094 11.708602 -69.596909 1.972272 4.177440 -50.530863 -0.000005 0.000002 0.000003 0.000001 -0.000003 -0.000000 11.738371 7.719423 -19.523042 -22.453438 38.797394 -2.679463 -195.589693 154.713811 187.971478 -13.115097 22.190549 -6.535562 -60.802153 -51.002529 22.837146 -20.085163 -5.009741 -14.811322 -0.000001 -0.000007 -0.000000 -1.200082 -7.784730 54.326030 6.678042 -13.990800 62.635218 -0.000000 0.000000 0.000002 -0.925774 -17.386513 68.897655 2.505524 -4.563393 57.519953 0.000000 0.000000 0.000002 -4.168691 -26.190089 69.153855 2.340240 -4.454208 55.417676 0.000002 -0.000000 0.000002 -20.939147 -35.301279 51.802689 10.528118 -13.671237 64.971252 -0.000000 -0.000000 0.000000 0.000000 -0.000000 -0.000000 0.000002 -0.000000 0.000000 0.000002 -0.000000 0.000000 0.000002 -0.000000 0.000000 0.000002 -0.000000 0.000000 0.000002 -0.000000 -0.000000 0.000001 0.000000 -0.000000 0.000002 -0.000000 0.000000 0.000002 -0.000000 -0.000000 0.000001 0.000000 -0.000000 0.000000 -0.000000 -0.000000 0.000000 -0.000000 -0.000000 -0.000002 0.000000 0.000000 
3.551317 53.135033 143.460815 30.443106 5.249439 -4.412155 0.000000 0.000000 0.000000 -58.543034 -15.417429 15.030204 105.298103 -2.401880 0.092856 -42.161761 7.592609 -20.953432 -0.000000 0.000001 0.000001 -0.000000 0.000001 0.000001 -0.000000 0.000001 0.000000 -96.814837 -3.805636 -30.196529 104.600877 4.336134 4.021530 -36.655347 0.830581 3.700822 -0.000000 -0.000000 -0.000000 -0.000000 -0.000000 -0.000000 -0.000001 -0.000000 0.000001 15.589692 -0.567873 0.334688 29.597529 -0.217324 0.855670 29.597440 -0.257641 0.855461 -61.879198 -15.279423 -5.991950 0.507161 12.659316 6.336011 0.000001 -0.000000 -0.000000 0.000001 -0.000000 -0.000000 0.000001 -0.000000 -0.000000 3.277923 -18.654259 30.897512 -79.614488 -18.021924 -35.015265 224.423269 -122.768183 204.569971 -3.743857 -8.732259 18.195472 -52.268999 40.330976 -34.553428 -32.803315 12.568201 45.584481 0.000001 0.000001 0.000000 8.055509 -12.890364 -68.562730 -6.995043 -4.320074 -57.752753 -0.000002 -0.000002 -0.000002 -0.093786 17.786315 -74.779274 4.491073 5.327332 -80.251328 0.000001 0.000001 0.000000 0.083454 27.807997 -81.140202 3.932152 5.200981 -74.165384 -0.000002 -0.000001 0.000001 -18.148023 11.710916 -69.596028 1.972297 4.177459 -50.530863 -0.000004 -0.000001 -0.000000 -0.000001 -0.000002 -0.000000 15.382616 13.212944 -20.667826 -18.655687 28.567027 -7.848630 -200.338751 148.946331 193.513821 -12.864561 20.371936 -7.571255 -60.802146 -51.002522 22.837166 -20.085197 -5.009638 -14.811304 -0.000000 0.000000 -0.000001 -1.196621 -7.787215 54.369959 6.681248 -13.992496 62.677709 -0.000001 -0.000000 0.000004 -0.929235 -17.386986 68.859010 2.487606 -4.551960 57.294407 0.000001 0.000001 -0.000000 -4.169056 -26.191960 69.153534 2.331211 -4.447971 55.301354 -0.000000 0.000001 0.000004 -20.939681 -35.300805 51.801528 10.528118 -13.671243 64.971266 -0.000001 0.000000 -0.000001 -0.000000 0.000000 -0.000000 0.000000 0.000000 0.000000 0.000000 0.000000 0.000000 0.000000 0.000000 0.000000 0.000000 0.000000 0.000000 0.000000 0.000000 0.000000 -0.000001 0.000000 -0.000000 0.000000 0.000000 0.000000 0.000000 0.000000 0.000000 -0.000001 0.000000 -0.000000 -0.000000 0.000000 -0.000001 -0.000000 0.000000 -0.000001 0.000000 0.000000 0.000000 
3.196806 53.178810 144.281174 31.710147 5.399931 -4.777469 0.000000 0.000000 -0.000000 -58.670751 -15.780884 15.703824 104.407877 -2.918697 0.103659 -41.840544 7.756592 -21.222386 -0.000001 0.000001 -0.000000 -0.000001 0.000001 -0.000000 -0.000000 0.000001 -0.000000 -96.306480 -3.139263 -28.193057 104.915107 2.143216 4.079997 -38.176116 0.106765 5.655328 0.000000 -0.000000 0.000000 0.000000 -0.000000 0.000000 0.000001 -0.000001 0.000001 15.035060 -0.536257 0.364361 28.470511 -0.015735 1.018650 28.470634 -0.063552 1.014660 -58.826534 -15.627090 -6.142766 -0.229489 13.114840 6.253532 0.000001 0.000000 -0.000000 0.000001 0.000000 -0.000000 0.000001 0.000000 -0.000000 3.287879 -19.379169 28.527706 -80.345332 -18.088965 -35.078434 228.106107 -122.285931 204.351187 -4.738224 -5.447675 12.971942 -52.587891 40.447837 -33.991338 -32.862130 12.509703 45.736668 -0.000000 0.000000 -0.000001 8.054210 -12.889509 -68.562853 -6.995038 -4.320077 -57.752760 -0.000001 -0.000002 -0.000004 -0.093573 17.787857 -74.779206 4.491060 5.327326 -80.251301 0.000004 -0.000001 -0.000002 0.082430 27.808897 -81.140072 3.932163 5.200980 -74.165397 0.000001 0.000000 -0.000004 -18.148029 11.713318 -69.595127 1.972284 4.177450 -50.530856 -0.000002 0.000002 0.000000 0.000001 -0.000001 0.000003 17.950374 17.845331 -21.434457 -17.946889 19.855934 -9.950740 -202.376251 144.076188 198.603173 -12.553502 18.837593 -8.582174 -60.802084 -51.002498 22.837210 -20.085174 -5.009740 -14.811356 -0.000000 -0.000002 -0.000000 -1.197589 -7.786504 54.357121 6.679648 -13.992000 62.662689 0.000000 0.000001 0.000000 -0.932677 -17.387421 68.820371 2.469723 -4.540466 57.068840 -0.000000 0.000001 -0.000000 -4.169440 -26.193801 69.153227 2.322209 -4.441757 55.185043 -0.000002 -0.000001 -0.000002 -20.940194 -35.300316 51.800356 10.528123 -13.671235 64.971252 0.000003 -0.000002 -0.000000 0.000000 -0.000000 0.000000 0.000001 0.000000 0.000000 0.000001 0.000000 0.000000 0.000001 0.000000 0.000000 0.000001 0.000000 0.000000 0.000001 0.000000 0.000000 0.000002 0.000000 0.000000 0.000001 0.000000 0.000000 0.000001 0.000000 0.000000 0.000002 0.000000 0.000000 -0.000002 0.000000 -0.000000 -0.000002 0.000000 -0.000000 0.000000 0.000000 -0.000000 
